<!DOCTYPE svg PUBLIC "-//W3C//DTD SVG 1.1//EN" "http://www.w3.org/Graphics/SVG/1.1/DTD/svg11.dtd">
<!-- Uploaded to: SVG Repo, www.svgrepo.com, Transformed by: SVG Repo Mixer Tools -->
<svg fill="#7f00e0" height="800px" width="800px" version="1.1" id="Layer_1" xmlns="http://www.w3.org/2000/svg" xmlns:xlink="http://www.w3.org/1999/xlink" viewBox="-33.52 -33.52 402.20 402.20" xml:space="preserve" stroke="#7f00e0">

<g id="SVGRepo_bgCarrier" stroke-width="0">

<rect x="-33.52" y="-33.52" width="402.20" height="402.20" rx="201.1" fill="none" strokewidth="0"/>

</g>

<g id="SVGRepo_tracerCarrier" stroke-linecap="round" stroke-linejoin="round"/>

<g id="SVGRepo_iconCarrier"> <g> <g> <path d="M333.352,138.278c-1.882-2.198-4.859-3.117-7.652-2.362l-94.603,25.558l-57.274-86.133 c-0.002-0.003-0.005-0.006-0.007-0.009c-2.965-4.438-9.51-4.442-12.477,0c-0.002,0.003-0.005,0.006-0.007,0.009l-57.274,86.134 L9.456,135.916c-2.794-0.758-5.771,0.164-7.652,2.362c-1.882,2.197-2.332,5.281-1.157,7.925l50,112.495 c1.166,2.646,3.862,4.455,6.86,4.455c0.005,0,0.01-0.001,0.014-0.001c1.074,0,219.237,0.003,220.208-0.005 c2.937-0.031,5.585-1.767,6.781-4.448l50-112.495C335.684,143.559,335.234,140.475,333.352,138.278z M175.078,104.318 l40.749,61.282l-40.749,11.008V104.318z M160.078,104.318v72.291L119.329,165.6L160.078,104.318z M20.752,154.506l128.331,34.671 l-88.246,55.515L20.752,154.506z M83.506,248.151l84.069-52.887l84.074,52.887H83.506z M274.32,244.692l-88.252-55.515 l17.086-4.616l111.251-30.055L274.32,244.692z"/> </g> </g> </g>

</svg>